# xmcd
#
# Track frame offsets: 
#        150
#        15082
#        33459
#        57524
#        79423
#        94513
#        114104
#        135746
#        157852
#
# Disc length: 2323 seconds
#
# Revision: 0
# Processed by: cddbd v1.5.2PL0 Copyright (c) Steve Scherf et al.
# Submitted via: ExactAudioCopyFreeDBPlugin 1.0
#
DISCID=5f091109
DTITLE=Laney Lou and the Bird Dogs - The Vigilante Session
DYEAR=2017
DGENRE=Bluegrass
TTITLE0=Granny Does Your Dog Bite
TTITLE1=Lonely Tracks
TTITLE2=Truckin'
TTITLE3=Bailing Water
TTITLE4=Sixes and Sevens
TTITLE5=Ain't It a Shame
TTITLE6=Ruby Are You Mad at Your Man
TTITLE7=Gone
TTITLE8=I'll Fly Away
EXTD=
EXTT0=
EXTT1=
EXTT2=
EXTT3=
EXTT4=
EXTT5=
EXTT6=
EXTT7=
EXTT8=
PLAYORDER=
